<svg width="22" height="22" viewBox="0 0 7 7" fill="none" xmlns="http://www.w3.org/2000/svg">
<g clip-path="url(#clip0_76_84)">
<path d="M3.06486 1.62006H1.23735C1.09887 1.62006 0.966064 1.67507 0.868143 1.77299C0.770221 1.87091 0.71521 2.00372 0.71521 2.1422V5.79721C0.71521 5.93569 0.770221 6.0685 0.868143 6.16642C0.966064 6.26435 1.09887 6.31936 1.23735 6.31936H4.89237C5.03085 6.31936 5.16366 6.26435 5.26158 6.16642C5.3595 6.0685 5.41451 5.93569 5.41451 5.79721V3.96971" stroke="#FFB300" stroke-width="0.522144" stroke-linecap="round" stroke-linejoin="round"/>
<path d="M5.023 1.22843C5.12686 1.12457 5.26772 1.06622 5.41461 1.06622C5.56149 1.06622 5.70235 1.12457 5.80621 1.22843C5.91007 1.33229 5.96842 1.47316 5.96842 1.62004C5.96842 1.76692 5.91007 1.90779 5.80621 2.01165L3.32603 4.49184L2.28174 4.75291L2.54281 3.70862L5.023 1.22843Z" stroke="#FFB300" stroke-width="0.522144" stroke-linecap="round" stroke-linejoin="round"/>
</g>
<defs>
<clipPath id="clip0_76_84">
<rect width="6.26573" height="6.26573" fill="white" transform="translate(0.193115 0.57576)"/>
</clipPath>
</defs>
</svg>
