<svg width="22" height="22" viewBox="0 0 7 7" fill="none" xmlns="http://www.w3.org/2000/svg">
<g clip-path="url(#clip0_76_85)">
<path d="M1.41919 2.1422H1.94133H6.11849" stroke="#A30D11" stroke-width="0.522144" stroke-linecap="round" stroke-linejoin="round"/>
<path d="M2.72462 2.14219V1.62004C2.72462 1.48156 2.77963 1.34875 2.87756 1.25083C2.97548 1.15291 3.10829 1.0979 3.24677 1.0979H4.29106C4.42954 1.0979 4.56235 1.15291 4.66027 1.25083C4.75819 1.34875 4.8132 1.48156 4.8132 1.62004V2.14219M5.59642 2.14219V5.7972C5.59642 5.93568 5.54141 6.06849 5.44349 6.16641C5.34556 6.26433 5.21275 6.31935 5.07427 6.31935H2.46355C2.32507 6.31935 2.19226 6.26433 2.09434 6.16641C1.99642 6.06849 1.94141 5.93568 1.94141 5.7972V2.14219H5.59642Z" stroke="#A30D11" stroke-width="0.522144" stroke-linecap="round" stroke-linejoin="round"/>
<path d="M3.2467 3.44756V5.01399" stroke="#A30D11" stroke-width="0.522144" stroke-linecap="round" stroke-linejoin="round"/>
<path d="M4.29102 3.44756V5.01399" stroke="#A30D11" stroke-width="0.522144" stroke-linecap="round" stroke-linejoin="round"/>
</g>
<defs>
<clipPath id="clip0_76_85">
<rect width="6.26573" height="6.26573" fill="white" transform="translate(0.635986 0.57576)"/>
</clipPath>
</defs>
</svg>
