<svg width="23" height="24" viewBox="0 0 4 5" fill="none" xmlns="http://www.w3.org/2000/svg">
<g clip-path="url(#clip0_76_355)">
<path d="M3.35139 3.85136L2.67781 3.17658L3.35139 3.85136ZM3.05109 2.27478C3.05109 2.61327 2.91662 2.9379 2.67728 3.17724C2.43793 3.41659 2.1133 3.55106 1.77481 3.55106C1.43632 3.55106 1.1117 3.41659 0.872348 3.17724C0.633 2.9379 0.498535 2.61327 0.498535 2.27478C0.498535 1.93629 0.633 1.61167 0.872348 1.37232C1.1117 1.13297 1.43632 0.998505 1.77481 0.998505C2.1133 0.998505 2.43793 1.13297 2.67728 1.37232C2.91662 1.61167 3.05109 1.93629 3.05109 2.27478V2.27478Z" stroke="#FDB100" stroke-width="0.50" stroke-linecap="round" stroke-linejoin="round"/>
</g>
<defs>
<clipPath id="clip0_76_355">
<rect width="3.6036" height="3.6036" fill="white" transform="translate(0.198242 0.698196)"/>
</clipPath>
</defs>
</svg>
