<svg width="30" height="31" viewBox="0 0 4 5" fill="none" xmlns="http://www.w3.org/2000/svg">
<g clip-path="url(#clip0_76_358)">
<path d="M2.20261 1.31757C2.20261 1.27277 2.18481 1.2298 2.15314 1.19813C2.12146 1.16645 2.07849 1.14865 2.03369 1.14865C1.98889 1.14865 1.94593 1.16645 1.91425 1.19813C1.88257 1.2298 1.86477 1.27277 1.86477 1.31757V2.27478H0.907566C0.862766 2.27478 0.819801 2.29257 0.788123 2.32425C0.756444 2.35593 0.738647 2.3989 0.738647 2.4437C0.738647 2.4885 0.756444 2.53146 0.788123 2.56314C0.819801 2.59482 0.862766 2.61261 0.907566 2.61261H1.86477V3.56982C1.86477 3.61462 1.88257 3.65759 1.91425 3.68927C1.94593 3.72094 1.98889 3.73874 2.03369 3.73874C2.07849 3.73874 2.12146 3.72094 2.15314 3.68927C2.18481 3.65759 2.20261 3.61462 2.20261 3.56982V2.61261H3.15982C3.20462 2.61261 3.24758 2.59482 3.27926 2.56314C3.31094 2.53146 3.32874 2.4885 3.32874 2.4437C3.32874 2.3989 3.31094 2.35593 3.27926 2.32425C3.24758 2.29257 3.20462 2.27478 3.15982 2.27478H2.20261V1.31757Z" fill="black"/>
</g>
<defs>
<clipPath id="clip0_76_358">
<rect width="3.6036" height="3.6036" fill="white" transform="translate(0.288208 0.698196)"/>
</clipPath>
</defs>
</svg>
